<mxfile host="app.diagrams.net" modified="2023-12-24T15:57:53.818Z" agent="Mozilla/5.0 (X11; Ubuntu; Linux x86_64; rv:109.0) Gecko/20100101 Firefox/116.0" etag="Aoxv0eGZ7gfNqFQQjxrr" version="22.1.11" type="device">
  <diagram name="Page-1" id="YZXTyYMUcUh9fSDW6d8G">
    <mxGraphModel dx="1988" dy="2160" grid="1" gridSize="10" guides="1" tooltips="1" connect="1" arrows="1" fold="1" page="1" pageScale="1" pageWidth="850" pageHeight="1100" math="0" shadow="0">
      <root>
        <mxCell id="0" />
        <mxCell id="1" parent="0" />
        <mxCell id="SjVd0R11uWINF_BP2O_y-102" style="edgeStyle=orthogonalEdgeStyle;rounded=0;orthogonalLoop=1;jettySize=auto;html=1;exitX=1;exitY=0.5;exitDx=0;exitDy=0;entryX=0;entryY=0.5;entryDx=0;entryDy=0;strokeWidth=2;endArrow=none;endFill=0;" edge="1" parent="1" source="SjVd0R11uWINF_BP2O_y-94" target="SjVd0R11uWINF_BP2O_y-101">
          <mxGeometry relative="1" as="geometry" />
        </mxCell>
        <mxCell id="SjVd0R11uWINF_BP2O_y-94" value="" style="rounded=1;whiteSpace=wrap;html=1;fillColor=#fad9d5;strokeColor=#ae4132;" vertex="1" parent="1">
          <mxGeometry x="935" y="-470" width="380" height="424" as="geometry" />
        </mxCell>
        <mxCell id="SjVd0R11uWINF_BP2O_y-37" value="" style="dashed=0;outlineConnect=0;html=1;align=center;labelPosition=center;verticalLabelPosition=bottom;verticalAlign=top;shape=mxgraph.weblogos.github;points=[[0,0.5,0,0,0]];" vertex="1" parent="1">
          <mxGeometry x="1020" y="970.1" width="75" height="75" as="geometry" />
        </mxCell>
        <mxCell id="SjVd0R11uWINF_BP2O_y-38" value="" style="dashed=0;outlineConnect=0;html=1;align=center;labelPosition=center;verticalLabelPosition=bottom;verticalAlign=top;shape=mxgraph.weblogos.gmail;points=[[1,0.5,0,0,0]];" vertex="1" parent="1">
          <mxGeometry x="760" y="979.2" width="90" height="65.9" as="geometry" />
        </mxCell>
        <mxCell id="SjVd0R11uWINF_BP2O_y-70" value="" style="group" vertex="1" connectable="0" parent="1">
          <mxGeometry x="330" y="-450" width="430" height="320.28999999999996" as="geometry" />
        </mxCell>
        <mxCell id="k-ZRCNuigtCwhWHw63hm-18" value="" style="rounded=1;whiteSpace=wrap;html=1;fillColor=#f5f5f5;strokeColor=#666666;gradientColor=#b3b3b3;" parent="SjVd0R11uWINF_BP2O_y-70" vertex="1">
          <mxGeometry width="430" height="320" as="geometry" />
        </mxCell>
        <mxCell id="k-ZRCNuigtCwhWHw63hm-19" value="Client" style="text;html=1;align=center;verticalAlign=middle;resizable=0;points=[];autosize=1;strokeColor=none;fillColor=none;" parent="SjVd0R11uWINF_BP2O_y-70" vertex="1">
          <mxGeometry x="180" y="20" width="50" height="30" as="geometry" />
        </mxCell>
        <mxCell id="k-ZRCNuigtCwhWHw63hm-17" value="" style="group" parent="SjVd0R11uWINF_BP2O_y-70" vertex="1" connectable="0">
          <mxGeometry x="44.41176470588232" y="60" width="325.5882352941176" height="260.29" as="geometry" />
        </mxCell>
        <mxCell id="k-ZRCNuigtCwhWHw63hm-8" value="" style="verticalAlign=top;align=left;spacingTop=8;spacingLeft=2;spacingRight=12;shape=cube;size=10;direction=south;fontStyle=4;html=1;whiteSpace=wrap;fillColor=#d5e8d4;strokeColor=#82b366;" parent="k-ZRCNuigtCwhWHw63hm-17" vertex="1">
          <mxGeometry x="5.588235294117645" width="320" height="220" as="geometry" />
        </mxCell>
        <mxCell id="k-ZRCNuigtCwhWHw63hm-9" value="&amp;lt;&amp;lt;device&amp;gt;&amp;gt;&lt;br&gt;Personal / Desktop Computer" style="text;html=1;align=center;verticalAlign=middle;resizable=0;points=[];autosize=1;strokeColor=none;fillColor=none;" parent="k-ZRCNuigtCwhWHw63hm-17" vertex="1">
          <mxGeometry x="70.58975070028009" y="26.91858974358975" width="180" height="40" as="geometry" />
        </mxCell>
        <mxCell id="k-ZRCNuigtCwhWHw63hm-11" value="" style="group" parent="k-ZRCNuigtCwhWHw63hm-17" vertex="1" connectable="0">
          <mxGeometry y="70.00290322580646" width="321.17647058823525" height="190.28709677419357" as="geometry" />
        </mxCell>
        <mxCell id="k-ZRCNuigtCwhWHw63hm-12" value="" style="verticalAlign=top;align=left;spacingTop=8;spacingLeft=2;spacingRight=12;shape=cube;size=10;direction=south;fontStyle=4;html=1;whiteSpace=wrap;fillColor=#e1d5e7;strokeColor=#9673a6;" parent="k-ZRCNuigtCwhWHw63hm-11" vertex="1">
          <mxGeometry x="30" width="270" height="135.48" as="geometry" />
        </mxCell>
        <mxCell id="k-ZRCNuigtCwhWHw63hm-13" value="&lt;div&gt;&amp;lt;&amp;lt;Operating system&amp;gt;&amp;gt;&lt;/div&gt;&lt;div&gt;Linux / MacOS / Windows&lt;br&gt;&lt;/div&gt;" style="text;html=1;align=center;verticalAlign=middle;resizable=0;points=[];autosize=1;strokeColor=none;fillColor=none;" parent="k-ZRCNuigtCwhWHw63hm-11" vertex="1">
          <mxGeometry x="80.58655985552113" y="22.58005093378608" width="160" height="40" as="geometry" />
        </mxCell>
        <mxCell id="k-ZRCNuigtCwhWHw63hm-15" value="" style="verticalAlign=top;align=left;spacingTop=8;spacingLeft=2;spacingRight=12;shape=cube;size=10;direction=south;fontStyle=4;html=1;whiteSpace=wrap;" parent="k-ZRCNuigtCwhWHw63hm-11" vertex="1">
          <mxGeometry x="60.220588235294116" y="59.04062500000002" width="200.73529411764707" height="72.20937500000001" as="geometry" />
        </mxCell>
        <mxCell id="k-ZRCNuigtCwhWHw63hm-16" value="&lt;div&gt;&amp;lt;&amp;lt;artifact&amp;gt;&amp;gt;&lt;/div&gt;&lt;div&gt;Browser&lt;br&gt;&lt;/div&gt;" style="text;html=1;align=center;verticalAlign=middle;resizable=0;points=[];autosize=1;strokeColor=none;fillColor=none;container=0;" parent="k-ZRCNuigtCwhWHw63hm-11" vertex="1">
          <mxGeometry x="115.58813725490194" y="73.384666218638" width="90" height="40" as="geometry" />
        </mxCell>
        <mxCell id="SjVd0R11uWINF_BP2O_y-71" value="" style="group" vertex="1" connectable="0" parent="1">
          <mxGeometry x="320" y="20" width="1240" height="800" as="geometry" />
        </mxCell>
        <mxCell id="SjVd0R11uWINF_BP2O_y-34" value="" style="rounded=1;whiteSpace=wrap;html=1;fillColor=#fad9d5;strokeColor=#ae4132;" vertex="1" parent="SjVd0R11uWINF_BP2O_y-71">
          <mxGeometry x="74.41" y="60" width="430" height="280" as="geometry" />
        </mxCell>
        <mxCell id="SjVd0R11uWINF_BP2O_y-32" value="" style="rounded=1;whiteSpace=wrap;html=1;fillColor=#dae8fc;strokeColor=#6c8ebf;" vertex="1" parent="SjVd0R11uWINF_BP2O_y-71">
          <mxGeometry x="65" y="407.58" width="430" height="350" as="geometry" />
        </mxCell>
        <mxCell id="k-ZRCNuigtCwhWHw63hm-21" value="" style="group" parent="SjVd0R11uWINF_BP2O_y-71" vertex="1" connectable="0">
          <mxGeometry x="110.00176470588235" y="100" width="510" height="340.00290322580645" as="geometry" />
        </mxCell>
        <mxCell id="k-ZRCNuigtCwhWHw63hm-22" value="" style="verticalAlign=top;align=left;spacingTop=8;spacingLeft=2;spacingRight=12;shape=cube;size=10;direction=south;fontStyle=4;html=1;whiteSpace=wrap;fillColor=#d5e8d4;strokeColor=#82b366;" parent="k-ZRCNuigtCwhWHw63hm-21" vertex="1">
          <mxGeometry x="5.588235294117645" width="320" height="220" as="geometry" />
        </mxCell>
        <mxCell id="k-ZRCNuigtCwhWHw63hm-23" value="&amp;lt;&amp;lt;device&amp;gt;&amp;gt;&lt;br&gt;Server" style="text;html=1;align=center;verticalAlign=middle;resizable=0;points=[];autosize=1;strokeColor=none;fillColor=none;" parent="k-ZRCNuigtCwhWHw63hm-21" vertex="1">
          <mxGeometry x="115.58975070028009" y="26.91858974358975" width="90" height="40" as="geometry" />
        </mxCell>
        <mxCell id="k-ZRCNuigtCwhWHw63hm-24" value="" style="group" parent="k-ZRCNuigtCwhWHw63hm-21" vertex="1" connectable="0">
          <mxGeometry y="70.00290322580646" width="510" height="270" as="geometry" />
        </mxCell>
        <mxCell id="k-ZRCNuigtCwhWHw63hm-25" value="" style="verticalAlign=top;align=left;spacingTop=8;spacingLeft=2;spacingRight=12;shape=cube;size=10;direction=south;fontStyle=4;html=1;whiteSpace=wrap;fillColor=#e1d5e7;strokeColor=#9673a6;" parent="k-ZRCNuigtCwhWHw63hm-24" vertex="1">
          <mxGeometry x="30" width="270" height="135.48" as="geometry" />
        </mxCell>
        <mxCell id="k-ZRCNuigtCwhWHw63hm-26" value="&lt;div&gt;&amp;lt;&amp;lt;Operating system&amp;gt;&amp;gt;&lt;/div&gt;&lt;div&gt;Linux Server&lt;br&gt;&lt;/div&gt;" style="text;html=1;align=center;verticalAlign=middle;resizable=0;points=[];autosize=1;strokeColor=none;fillColor=none;" parent="k-ZRCNuigtCwhWHw63hm-24" vertex="1">
          <mxGeometry x="90.58655985552113" y="22.58005093378608" width="140" height="40" as="geometry" />
        </mxCell>
        <mxCell id="k-ZRCNuigtCwhWHw63hm-27" value="" style="verticalAlign=top;align=left;spacingTop=8;spacingLeft=2;spacingRight=12;shape=cube;size=10;direction=south;fontStyle=4;html=1;whiteSpace=wrap;" parent="k-ZRCNuigtCwhWHw63hm-24" vertex="1">
          <mxGeometry x="60.220588235294116" y="59.04062500000002" width="200.73529411764707" height="72.20937500000001" as="geometry" />
        </mxCell>
        <mxCell id="k-ZRCNuigtCwhWHw63hm-28" value="&lt;div&gt;&amp;lt;&amp;lt;artifact&amp;gt;&amp;gt;&lt;/div&gt;&lt;div&gt;MessageBroker&lt;br&gt;&lt;/div&gt;" style="text;html=1;align=center;verticalAlign=middle;resizable=0;points=[];autosize=1;strokeColor=none;fillColor=none;container=0;" parent="k-ZRCNuigtCwhWHw63hm-24" vertex="1">
          <mxGeometry x="105.58813725490194" y="73.384666218638" width="110" height="40" as="geometry" />
        </mxCell>
        <mxCell id="SjVd0R11uWINF_BP2O_y-1" value="" style="ellipse;shape=cloud;whiteSpace=wrap;html=1;" vertex="1" parent="k-ZRCNuigtCwhWHw63hm-21">
          <mxGeometry x="275.5882352941177" y="20" width="30" height="30" as="geometry" />
        </mxCell>
        <mxCell id="SjVd0R11uWINF_BP2O_y-9" value="" style="verticalAlign=top;align=left;spacingTop=8;spacingLeft=2;spacingRight=12;shape=cube;size=10;direction=south;fontStyle=4;html=1;whiteSpace=wrap;fillColor=#d5e8d4;strokeColor=#82b366;" vertex="1" parent="SjVd0R11uWINF_BP2O_y-71">
          <mxGeometry x="85" y="457.58" width="320" height="220" as="geometry" />
        </mxCell>
        <mxCell id="SjVd0R11uWINF_BP2O_y-10" value="&amp;lt;&amp;lt;device&amp;gt;&amp;gt;&lt;br&gt;Server" style="text;html=1;align=center;verticalAlign=middle;resizable=0;points=[];autosize=1;strokeColor=none;fillColor=none;" vertex="1" parent="SjVd0R11uWINF_BP2O_y-71">
          <mxGeometry x="195.00151540616247" y="484.4985897435897" width="90" height="40" as="geometry" />
        </mxCell>
        <mxCell id="SjVd0R11uWINF_BP2O_y-11" value="" style="verticalAlign=top;align=left;spacingTop=8;spacingLeft=2;spacingRight=12;shape=cube;size=10;direction=south;fontStyle=4;html=1;whiteSpace=wrap;fillColor=#e1d5e7;strokeColor=#9673a6;" vertex="1" parent="SjVd0R11uWINF_BP2O_y-71">
          <mxGeometry x="109.41176470588238" y="527.5829032258065" width="270" height="135.48" as="geometry" />
        </mxCell>
        <mxCell id="SjVd0R11uWINF_BP2O_y-12" value="&lt;div&gt;&amp;lt;&amp;lt;Operating system&amp;gt;&amp;gt;&lt;/div&gt;&lt;div&gt;Linux Server&lt;br&gt;&lt;/div&gt;" style="text;html=1;align=center;verticalAlign=middle;resizable=0;points=[];autosize=1;strokeColor=none;fillColor=none;" vertex="1" parent="SjVd0R11uWINF_BP2O_y-71">
          <mxGeometry x="169.99832456140348" y="550.1629541595926" width="140" height="40" as="geometry" />
        </mxCell>
        <mxCell id="SjVd0R11uWINF_BP2O_y-13" value="" style="verticalAlign=top;align=left;spacingTop=8;spacingLeft=2;spacingRight=12;shape=cube;size=10;direction=south;fontStyle=4;html=1;whiteSpace=wrap;" vertex="1" parent="SjVd0R11uWINF_BP2O_y-71">
          <mxGeometry x="139.63235294117646" y="586.6235282258066" width="200.73529411764707" height="72.20937500000001" as="geometry" />
        </mxCell>
        <mxCell id="SjVd0R11uWINF_BP2O_y-14" value="&lt;div&gt;&amp;lt;&amp;lt;artifact&amp;gt;&amp;gt;&lt;/div&gt;&lt;div&gt;GenericService&lt;br&gt;&lt;/div&gt;" style="text;html=1;align=center;verticalAlign=middle;resizable=0;points=[];autosize=1;strokeColor=none;fillColor=none;container=0;" vertex="1" parent="SjVd0R11uWINF_BP2O_y-71">
          <mxGeometry x="184.99990196078426" y="600.9675694444445" width="110" height="40" as="geometry" />
        </mxCell>
        <mxCell id="SjVd0R11uWINF_BP2O_y-15" value="" style="ellipse;shape=cloud;whiteSpace=wrap;html=1;" vertex="1" parent="SjVd0R11uWINF_BP2O_y-71">
          <mxGeometry x="355" y="477.58" width="30" height="30" as="geometry" />
        </mxCell>
        <mxCell id="SjVd0R11uWINF_BP2O_y-16" value="" style="verticalAlign=top;align=left;spacingTop=8;spacingLeft=2;spacingRight=12;shape=cube;size=10;direction=south;fontStyle=4;html=1;whiteSpace=wrap;fillColor=#d5e8d4;strokeColor=#82b366;" vertex="1" parent="SjVd0R11uWINF_BP2O_y-71">
          <mxGeometry x="109.41000000000003" y="484.5" width="320" height="220" as="geometry" />
        </mxCell>
        <mxCell id="SjVd0R11uWINF_BP2O_y-17" value="&amp;lt;&amp;lt;device&amp;gt;&amp;gt;&lt;br&gt;Server" style="text;html=1;align=center;verticalAlign=middle;resizable=0;points=[];autosize=1;strokeColor=none;fillColor=none;" vertex="1" parent="SjVd0R11uWINF_BP2O_y-71">
          <mxGeometry x="219.4115154061625" y="511.4185897435898" width="90" height="40" as="geometry" />
        </mxCell>
        <mxCell id="SjVd0R11uWINF_BP2O_y-18" value="" style="verticalAlign=top;align=left;spacingTop=8;spacingLeft=2;spacingRight=12;shape=cube;size=10;direction=south;fontStyle=4;html=1;whiteSpace=wrap;fillColor=#e1d5e7;strokeColor=#9673a6;" vertex="1" parent="SjVd0R11uWINF_BP2O_y-71">
          <mxGeometry x="133.8217647058824" y="554.5029032258064" width="270" height="135.48" as="geometry" />
        </mxCell>
        <mxCell id="SjVd0R11uWINF_BP2O_y-19" value="&lt;div&gt;&amp;lt;&amp;lt;Operating system&amp;gt;&amp;gt;&lt;/div&gt;&lt;div&gt;Linux Server&lt;br&gt;&lt;/div&gt;" style="text;html=1;align=center;verticalAlign=middle;resizable=0;points=[];autosize=1;strokeColor=none;fillColor=none;" vertex="1" parent="SjVd0R11uWINF_BP2O_y-71">
          <mxGeometry x="194.4083245614035" y="577.0829541595925" width="140" height="40" as="geometry" />
        </mxCell>
        <mxCell id="SjVd0R11uWINF_BP2O_y-20" value="" style="verticalAlign=top;align=left;spacingTop=8;spacingLeft=2;spacingRight=12;shape=cube;size=10;direction=south;fontStyle=4;html=1;whiteSpace=wrap;" vertex="1" parent="SjVd0R11uWINF_BP2O_y-71">
          <mxGeometry x="164.0423529411765" y="613.5435282258065" width="200.73529411764707" height="72.20937500000001" as="geometry" />
        </mxCell>
        <mxCell id="SjVd0R11uWINF_BP2O_y-21" value="&lt;div&gt;&amp;lt;&amp;lt;artifact&amp;gt;&amp;gt;&lt;/div&gt;&lt;div&gt;GenericService&lt;br&gt;&lt;/div&gt;" style="text;html=1;align=center;verticalAlign=middle;resizable=0;points=[];autosize=1;strokeColor=none;fillColor=none;container=0;" vertex="1" parent="SjVd0R11uWINF_BP2O_y-71">
          <mxGeometry x="209.40990196078428" y="627.8875694444445" width="110" height="40" as="geometry" />
        </mxCell>
        <mxCell id="SjVd0R11uWINF_BP2O_y-22" value="" style="ellipse;shape=cloud;whiteSpace=wrap;html=1;" vertex="1" parent="SjVd0R11uWINF_BP2O_y-71">
          <mxGeometry x="379.40999999999997" y="504.5" width="30" height="30" as="geometry" />
        </mxCell>
        <mxCell id="SjVd0R11uWINF_BP2O_y-23" value="" style="verticalAlign=top;align=left;spacingTop=8;spacingLeft=2;spacingRight=12;shape=cube;size=10;direction=south;fontStyle=4;html=1;whiteSpace=wrap;fillColor=#d5e8d4;strokeColor=#82b366;" vertex="1" parent="SjVd0R11uWINF_BP2O_y-71">
          <mxGeometry x="133.82" y="512.73" width="320" height="220" as="geometry" />
        </mxCell>
        <mxCell id="SjVd0R11uWINF_BP2O_y-24" value="&amp;lt;&amp;lt;device&amp;gt;&amp;gt;&lt;br&gt;Server" style="text;html=1;align=center;verticalAlign=middle;resizable=0;points=[];autosize=1;strokeColor=none;fillColor=none;" vertex="1" parent="SjVd0R11uWINF_BP2O_y-71">
          <mxGeometry x="243.82151540616246" y="539.6485897435898" width="90" height="40" as="geometry" />
        </mxCell>
        <mxCell id="SjVd0R11uWINF_BP2O_y-25" value="" style="verticalAlign=top;align=left;spacingTop=8;spacingLeft=2;spacingRight=12;shape=cube;size=10;direction=south;fontStyle=4;html=1;whiteSpace=wrap;fillColor=#e1d5e7;strokeColor=#9673a6;" vertex="1" parent="SjVd0R11uWINF_BP2O_y-71">
          <mxGeometry x="158.23176470588237" y="582.7329032258065" width="270" height="135.48" as="geometry" />
        </mxCell>
        <mxCell id="SjVd0R11uWINF_BP2O_y-26" value="&lt;div&gt;&amp;lt;&amp;lt;Operating system&amp;gt;&amp;gt;&lt;/div&gt;&lt;div&gt;Linux Server&lt;br&gt;&lt;/div&gt;" style="text;html=1;align=center;verticalAlign=middle;resizable=0;points=[];autosize=1;strokeColor=none;fillColor=none;" vertex="1" parent="SjVd0R11uWINF_BP2O_y-71">
          <mxGeometry x="218.81832456140347" y="605.3129541595926" width="140" height="40" as="geometry" />
        </mxCell>
        <mxCell id="SjVd0R11uWINF_BP2O_y-27" value="" style="verticalAlign=top;align=left;spacingTop=8;spacingLeft=2;spacingRight=12;shape=cube;size=10;direction=south;fontStyle=4;html=1;whiteSpace=wrap;" vertex="1" parent="SjVd0R11uWINF_BP2O_y-71">
          <mxGeometry x="188.45235294117646" y="641.7735282258066" width="200.73529411764707" height="72.20937500000001" as="geometry" />
        </mxCell>
        <mxCell id="SjVd0R11uWINF_BP2O_y-28" value="&lt;div&gt;&amp;lt;&amp;lt;artifact&amp;gt;&amp;gt;&lt;/div&gt;&lt;div&gt;GenericService&lt;br&gt;&lt;/div&gt;" style="text;html=1;align=center;verticalAlign=middle;resizable=0;points=[];autosize=1;strokeColor=none;fillColor=none;container=0;" vertex="1" parent="SjVd0R11uWINF_BP2O_y-71">
          <mxGeometry x="233.81990196078425" y="656.1175694444445" width="110" height="40" as="geometry" />
        </mxCell>
        <mxCell id="SjVd0R11uWINF_BP2O_y-29" value="" style="ellipse;shape=cloud;whiteSpace=wrap;html=1;" vertex="1" parent="SjVd0R11uWINF_BP2O_y-71">
          <mxGeometry x="403.82000000000005" y="532.73" width="30" height="30" as="geometry" />
        </mxCell>
        <mxCell id="SjVd0R11uWINF_BP2O_y-30" value="0 ... N" style="text;html=1;align=center;verticalAlign=middle;resizable=0;points=[];autosize=1;strokeColor=none;fillColor=none;" vertex="1" parent="SjVd0R11uWINF_BP2O_y-71">
          <mxGeometry x="428.82000000000005" y="467.58" width="60" height="30" as="geometry" />
        </mxCell>
        <mxCell id="SjVd0R11uWINF_BP2O_y-31" value="Cloud" style="shape=umlFrame;whiteSpace=wrap;html=1;pointerEvents=0;width=130;height=30;" vertex="1" parent="SjVd0R11uWINF_BP2O_y-71">
          <mxGeometry width="1240" height="800" as="geometry" />
        </mxCell>
        <mxCell id="SjVd0R11uWINF_BP2O_y-33" value="Services" style="text;html=1;align=center;verticalAlign=middle;resizable=0;points=[];autosize=1;strokeColor=none;fillColor=none;" vertex="1" parent="SjVd0R11uWINF_BP2O_y-71">
          <mxGeometry x="245" y="417.58" width="70" height="30" as="geometry" />
        </mxCell>
        <mxCell id="SjVd0R11uWINF_BP2O_y-35" value="Broker" style="text;html=1;align=center;verticalAlign=middle;resizable=0;points=[];autosize=1;strokeColor=none;fillColor=none;" vertex="1" parent="SjVd0R11uWINF_BP2O_y-71">
          <mxGeometry x="250" y="60" width="60" height="30" as="geometry" />
        </mxCell>
        <mxCell id="SjVd0R11uWINF_BP2O_y-40" value="" style="rounded=1;whiteSpace=wrap;html=1;fillColor=#fff2cc;strokeColor=#d6b656;gradientColor=#ffd966;" vertex="1" parent="SjVd0R11uWINF_BP2O_y-71">
          <mxGeometry x="670" y="70" width="430" height="280" as="geometry" />
        </mxCell>
        <mxCell id="SjVd0R11uWINF_BP2O_y-41" value="" style="verticalAlign=top;align=left;spacingTop=8;spacingLeft=2;spacingRight=12;shape=cube;size=10;direction=south;fontStyle=4;html=1;whiteSpace=wrap;fillColor=#d5e8d4;strokeColor=#82b366;" vertex="1" parent="SjVd0R11uWINF_BP2O_y-71">
          <mxGeometry x="711.1800000000001" y="110" width="320" height="220" as="geometry" />
        </mxCell>
        <mxCell id="SjVd0R11uWINF_BP2O_y-42" value="&amp;lt;&amp;lt;device&amp;gt;&amp;gt;&lt;br&gt;Database Server" style="text;html=1;align=center;verticalAlign=middle;resizable=0;points=[];autosize=1;strokeColor=none;fillColor=none;" vertex="1" parent="SjVd0R11uWINF_BP2O_y-71">
          <mxGeometry x="811.1815154061625" y="136.91858974358973" width="110" height="40" as="geometry" />
        </mxCell>
        <mxCell id="SjVd0R11uWINF_BP2O_y-43" value="" style="verticalAlign=top;align=left;spacingTop=8;spacingLeft=2;spacingRight=12;shape=cube;size=10;direction=south;fontStyle=4;html=1;whiteSpace=wrap;fillColor=#e1d5e7;strokeColor=#9673a6;" vertex="1" parent="SjVd0R11uWINF_BP2O_y-71">
          <mxGeometry x="735.5917647058824" y="180.00290322580645" width="270" height="135.48" as="geometry" />
        </mxCell>
        <mxCell id="SjVd0R11uWINF_BP2O_y-44" value="&lt;div&gt;&amp;lt;&amp;lt;Operating system&amp;gt;&amp;gt;&lt;/div&gt;&lt;div&gt;Linux Server&lt;br&gt;&lt;/div&gt;" style="text;html=1;align=center;verticalAlign=middle;resizable=0;points=[];autosize=1;strokeColor=none;fillColor=none;" vertex="1" parent="SjVd0R11uWINF_BP2O_y-71">
          <mxGeometry x="796.1783245614035" y="202.58295415959253" width="140" height="40" as="geometry" />
        </mxCell>
        <mxCell id="SjVd0R11uWINF_BP2O_y-45" value="" style="verticalAlign=top;align=left;spacingTop=8;spacingLeft=2;spacingRight=12;shape=cube;size=10;direction=south;fontStyle=4;html=1;whiteSpace=wrap;" vertex="1" parent="SjVd0R11uWINF_BP2O_y-71">
          <mxGeometry x="765.8123529411765" y="239.04352822580648" width="200.73529411764707" height="72.20937500000001" as="geometry" />
        </mxCell>
        <mxCell id="SjVd0R11uWINF_BP2O_y-46" value="&lt;div&gt;&amp;lt;&amp;lt;artifact&amp;gt;&amp;gt;&lt;/div&gt;&lt;div&gt;DBMS&lt;br&gt;&lt;/div&gt;" style="text;html=1;align=center;verticalAlign=middle;resizable=0;points=[];autosize=1;strokeColor=none;fillColor=none;container=0;" vertex="1" parent="SjVd0R11uWINF_BP2O_y-71">
          <mxGeometry x="821.1799019607843" y="253.38756944444447" width="90" height="40" as="geometry" />
        </mxCell>
        <mxCell id="SjVd0R11uWINF_BP2O_y-47" value="" style="ellipse;shape=cloud;whiteSpace=wrap;html=1;" vertex="1" parent="SjVd0R11uWINF_BP2O_y-71">
          <mxGeometry x="981.1800000000001" y="130" width="30" height="30" as="geometry" />
        </mxCell>
        <mxCell id="SjVd0R11uWINF_BP2O_y-48" value="Application Database" style="text;html=1;align=center;verticalAlign=middle;resizable=0;points=[];autosize=1;strokeColor=none;fillColor=none;" vertex="1" parent="SjVd0R11uWINF_BP2O_y-71">
          <mxGeometry x="805.59" y="70" width="140" height="30" as="geometry" />
        </mxCell>
        <mxCell id="SjVd0R11uWINF_BP2O_y-49" value="" style="rounded=1;whiteSpace=wrap;html=1;fillColor=#fff2cc;strokeColor=#d6b656;gradientColor=#ffd966;" vertex="1" parent="SjVd0R11uWINF_BP2O_y-71">
          <mxGeometry x="670" y="442.58" width="430" height="280" as="geometry" />
        </mxCell>
        <mxCell id="SjVd0R11uWINF_BP2O_y-50" value="" style="verticalAlign=top;align=left;spacingTop=8;spacingLeft=2;spacingRight=12;shape=cube;size=10;direction=south;fontStyle=4;html=1;whiteSpace=wrap;fillColor=#d5e8d4;strokeColor=#82b366;" vertex="1" parent="SjVd0R11uWINF_BP2O_y-71">
          <mxGeometry x="711.1800000000001" y="482.58" width="320" height="220" as="geometry" />
        </mxCell>
        <mxCell id="SjVd0R11uWINF_BP2O_y-51" value="&amp;lt;&amp;lt;device&amp;gt;&amp;gt;&lt;br&gt;Database Server" style="text;html=1;align=center;verticalAlign=middle;resizable=0;points=[];autosize=1;strokeColor=none;fillColor=none;" vertex="1" parent="SjVd0R11uWINF_BP2O_y-71">
          <mxGeometry x="811.1815154061625" y="509.4985897435897" width="110" height="40" as="geometry" />
        </mxCell>
        <mxCell id="SjVd0R11uWINF_BP2O_y-52" value="" style="verticalAlign=top;align=left;spacingTop=8;spacingLeft=2;spacingRight=12;shape=cube;size=10;direction=south;fontStyle=4;html=1;whiteSpace=wrap;fillColor=#e1d5e7;strokeColor=#9673a6;" vertex="1" parent="SjVd0R11uWINF_BP2O_y-71">
          <mxGeometry x="735.5917647058824" y="552.5829032258065" width="270" height="135.48" as="geometry" />
        </mxCell>
        <mxCell id="SjVd0R11uWINF_BP2O_y-53" value="&lt;div&gt;&amp;lt;&amp;lt;Operating system&amp;gt;&amp;gt;&lt;/div&gt;&lt;div&gt;Linux Server&lt;br&gt;&lt;/div&gt;" style="text;html=1;align=center;verticalAlign=middle;resizable=0;points=[];autosize=1;strokeColor=none;fillColor=none;" vertex="1" parent="SjVd0R11uWINF_BP2O_y-71">
          <mxGeometry x="796.1783245614035" y="575.1629541595926" width="140" height="40" as="geometry" />
        </mxCell>
        <mxCell id="SjVd0R11uWINF_BP2O_y-54" value="" style="verticalAlign=top;align=left;spacingTop=8;spacingLeft=2;spacingRight=12;shape=cube;size=10;direction=south;fontStyle=4;html=1;whiteSpace=wrap;" vertex="1" parent="SjVd0R11uWINF_BP2O_y-71">
          <mxGeometry x="765.8123529411765" y="611.6235282258066" width="200.73529411764707" height="72.20937500000001" as="geometry" />
        </mxCell>
        <mxCell id="SjVd0R11uWINF_BP2O_y-55" value="&lt;div&gt;&amp;lt;&amp;lt;artifact&amp;gt;&amp;gt;&lt;/div&gt;&lt;div&gt;DBMS&lt;br&gt;&lt;/div&gt;" style="text;html=1;align=center;verticalAlign=middle;resizable=0;points=[];autosize=1;strokeColor=none;fillColor=none;container=0;" vertex="1" parent="SjVd0R11uWINF_BP2O_y-71">
          <mxGeometry x="821.1799019607843" y="625.9675694444445" width="90" height="40" as="geometry" />
        </mxCell>
        <mxCell id="SjVd0R11uWINF_BP2O_y-56" value="" style="ellipse;shape=cloud;whiteSpace=wrap;html=1;" vertex="1" parent="SjVd0R11uWINF_BP2O_y-71">
          <mxGeometry x="981.1800000000001" y="502.58000000000004" width="30" height="30" as="geometry" />
        </mxCell>
        <mxCell id="SjVd0R11uWINF_BP2O_y-57" value="Sources Database" style="text;html=1;align=center;verticalAlign=middle;resizable=0;points=[];autosize=1;strokeColor=none;fillColor=none;" vertex="1" parent="SjVd0R11uWINF_BP2O_y-71">
          <mxGeometry x="815.59" y="442.58" width="120" height="30" as="geometry" />
        </mxCell>
        <mxCell id="SjVd0R11uWINF_BP2O_y-58" style="edgeStyle=orthogonalEdgeStyle;rounded=0;orthogonalLoop=1;jettySize=auto;html=1;entryX=0.477;entryY=0.999;entryDx=0;entryDy=0;entryPerimeter=0;dashed=1;endArrow=none;endFill=0;strokeWidth=4;" edge="1" parent="SjVd0R11uWINF_BP2O_y-71" source="SjVd0R11uWINF_BP2O_y-32" target="SjVd0R11uWINF_BP2O_y-34">
          <mxGeometry relative="1" as="geometry" />
        </mxCell>
        <mxCell id="SjVd0R11uWINF_BP2O_y-59" style="edgeStyle=orthogonalEdgeStyle;rounded=0;orthogonalLoop=1;jettySize=auto;html=1;entryX=0;entryY=0.5;entryDx=0;entryDy=0;dashed=1;endArrow=none;endFill=0;strokeWidth=4;exitX=1;exitY=0.5;exitDx=0;exitDy=0;" edge="1" parent="SjVd0R11uWINF_BP2O_y-71" source="SjVd0R11uWINF_BP2O_y-32" target="SjVd0R11uWINF_BP2O_y-49">
          <mxGeometry relative="1" as="geometry">
            <mxPoint x="290" y="418" as="sourcePoint" />
            <mxPoint x="290" y="350" as="targetPoint" />
          </mxGeometry>
        </mxCell>
        <mxCell id="SjVd0R11uWINF_BP2O_y-60" style="edgeStyle=orthogonalEdgeStyle;rounded=0;orthogonalLoop=1;jettySize=auto;html=1;entryX=0;entryY=0.5;entryDx=0;entryDy=0;dashed=1;endArrow=none;endFill=0;strokeWidth=4;exitX=1;exitY=0.25;exitDx=0;exitDy=0;" edge="1" parent="SjVd0R11uWINF_BP2O_y-71" source="SjVd0R11uWINF_BP2O_y-32" target="SjVd0R11uWINF_BP2O_y-40">
          <mxGeometry relative="1" as="geometry">
            <mxPoint x="495" y="579.65" as="sourcePoint" />
            <mxPoint x="670" y="579.65" as="targetPoint" />
          </mxGeometry>
        </mxCell>
        <mxCell id="SjVd0R11uWINF_BP2O_y-73" value="" style="verticalAlign=top;align=left;spacingTop=8;spacingLeft=2;spacingRight=12;shape=cube;size=10;direction=south;fontStyle=4;html=1;whiteSpace=wrap;fillColor=#d5e8d4;strokeColor=#82b366;" vertex="1" parent="1">
          <mxGeometry x="965" y="-424.57000000000005" width="320" height="357.42" as="geometry" />
        </mxCell>
        <mxCell id="SjVd0R11uWINF_BP2O_y-74" value="&amp;lt;&amp;lt;device&amp;gt;&amp;gt;&lt;br&gt;Web Server" style="text;html=1;align=center;verticalAlign=middle;resizable=0;points=[];autosize=1;strokeColor=none;fillColor=none;" vertex="1" parent="1">
          <mxGeometry x="1075.0015154061625" y="-397.65141025641026" width="90" height="40" as="geometry" />
        </mxCell>
        <mxCell id="SjVd0R11uWINF_BP2O_y-75" value="" style="verticalAlign=top;align=left;spacingTop=8;spacingLeft=2;spacingRight=12;shape=cube;size=10;direction=south;fontStyle=4;html=1;whiteSpace=wrap;fillColor=#e1d5e7;strokeColor=#9673a6;" vertex="1" parent="1">
          <mxGeometry x="989.41" y="-354.57000000000005" width="270" height="257.42" as="geometry" />
        </mxCell>
        <mxCell id="SjVd0R11uWINF_BP2O_y-76" value="&lt;div&gt;&amp;lt;&amp;lt;Operating system&amp;gt;&amp;gt;&lt;/div&gt;&lt;div&gt;Linux Server&lt;br&gt;&lt;/div&gt;" style="text;html=1;align=center;verticalAlign=middle;resizable=0;points=[];autosize=1;strokeColor=none;fillColor=none;" vertex="1" parent="1">
          <mxGeometry x="1049.9983245614035" y="-331.9870458404075" width="140" height="40" as="geometry" />
        </mxCell>
        <mxCell id="SjVd0R11uWINF_BP2O_y-77" value="" style="verticalAlign=top;align=left;spacingTop=8;spacingLeft=2;spacingRight=12;shape=cube;size=10;direction=south;fontStyle=4;html=1;whiteSpace=wrap;" vertex="1" parent="1">
          <mxGeometry x="1019.6323529411765" y="-295.5264717741935" width="200.73529411764707" height="72.20937500000001" as="geometry" />
        </mxCell>
        <mxCell id="SjVd0R11uWINF_BP2O_y-78" value="&lt;div&gt;&amp;lt;&amp;lt;artifact&amp;gt;&amp;gt;&lt;/div&gt;&lt;div&gt;Static Files&lt;br&gt;&lt;/div&gt;" style="text;html=1;align=center;verticalAlign=middle;resizable=0;points=[];autosize=1;strokeColor=none;fillColor=none;container=0;" vertex="1" parent="1">
          <mxGeometry x="1074.9999019607844" y="-281.1824305555556" width="90" height="40" as="geometry" />
        </mxCell>
        <mxCell id="SjVd0R11uWINF_BP2O_y-81" value="" style="verticalAlign=top;align=left;spacingTop=8;spacingLeft=2;spacingRight=12;shape=cube;size=10;direction=south;fontStyle=4;html=1;whiteSpace=wrap;" vertex="1" parent="1">
          <mxGeometry x="1019.6323529411765" y="-195.99647177419354" width="200.73529411764707" height="72.20937500000001" as="geometry" />
        </mxCell>
        <mxCell id="SjVd0R11uWINF_BP2O_y-82" value="&lt;div&gt;&amp;lt;&amp;lt;artifact&amp;gt;&amp;gt;&lt;/div&gt;&lt;div&gt;API Gateway&lt;br&gt;&lt;/div&gt;" style="text;html=1;align=center;verticalAlign=middle;resizable=0;points=[];autosize=1;strokeColor=none;fillColor=none;container=0;" vertex="1" parent="1">
          <mxGeometry x="1074.9999019607844" y="-172.80243055555547" width="90" height="40" as="geometry" />
        </mxCell>
        <mxCell id="SjVd0R11uWINF_BP2O_y-96" value="&lt;div&gt;Presentation&lt;/div&gt;" style="text;html=1;align=center;verticalAlign=middle;resizable=0;points=[];autosize=1;strokeColor=none;fillColor=none;" vertex="1" parent="1">
          <mxGeometry x="1075" y="-466" width="90" height="30" as="geometry" />
        </mxCell>
        <mxCell id="SjVd0R11uWINF_BP2O_y-110" style="edgeStyle=orthogonalEdgeStyle;rounded=0;orthogonalLoop=1;jettySize=auto;html=1;exitX=1;exitY=0.5;exitDx=0;exitDy=0;entryX=0;entryY=0.5;entryDx=0;entryDy=0;endArrow=none;endFill=0;strokeWidth=2;" edge="1" parent="1" source="SjVd0R11uWINF_BP2O_y-97" target="SjVd0R11uWINF_BP2O_y-94">
          <mxGeometry relative="1" as="geometry" />
        </mxCell>
        <mxCell id="SjVd0R11uWINF_BP2O_y-97" value="" style="shape=image;verticalLabelPosition=bottom;labelBackgroundColor=default;verticalAlign=top;aspect=fixed;imageAspect=0;image=https://cdn-icons-png.flaticon.com/512/811/811683.png;" vertex="1" parent="1">
          <mxGeometry x="790" y="-316.40000000000003" width="116.8" height="116.8" as="geometry" />
        </mxCell>
        <mxCell id="SjVd0R11uWINF_BP2O_y-101" value="" style="shape=image;verticalLabelPosition=bottom;labelBackgroundColor=default;verticalAlign=top;aspect=fixed;imageAspect=0;image=https://cdn-icons-png.flaticon.com/512/811/811683.png;" vertex="1" parent="1">
          <mxGeometry x="1360" y="-316.40000000000003" width="116.8" height="116.8" as="geometry" />
        </mxCell>
        <mxCell id="SjVd0R11uWINF_BP2O_y-103" style="edgeStyle=orthogonalEdgeStyle;rounded=0;orthogonalLoop=1;jettySize=auto;html=1;exitX=1;exitY=0.5;exitDx=0;exitDy=0;entryX=0.948;entryY=0.002;entryDx=0;entryDy=0;entryPerimeter=0;strokeWidth=2;endArrow=none;endFill=0;" edge="1" parent="1" source="SjVd0R11uWINF_BP2O_y-101" target="SjVd0R11uWINF_BP2O_y-31">
          <mxGeometry relative="1" as="geometry">
            <Array as="points">
              <mxPoint x="1496" y="-259" />
              <mxPoint x="1496" y="-90" />
            </Array>
          </mxGeometry>
        </mxCell>
        <mxCell id="SjVd0R11uWINF_BP2O_y-106" style="edgeStyle=orthogonalEdgeStyle;rounded=0;orthogonalLoop=1;jettySize=auto;html=1;exitX=0.5;exitY=1;exitDx=0;exitDy=0;entryX=1;entryY=0.5;entryDx=0;entryDy=0;entryPerimeter=0;strokeWidth=2;endArrow=none;endFill=0;" edge="1" parent="1" source="SjVd0R11uWINF_BP2O_y-104" target="SjVd0R11uWINF_BP2O_y-38">
          <mxGeometry relative="1" as="geometry" />
        </mxCell>
        <mxCell id="SjVd0R11uWINF_BP2O_y-108" style="edgeStyle=orthogonalEdgeStyle;rounded=0;orthogonalLoop=1;jettySize=auto;html=1;exitX=0.5;exitY=1;exitDx=0;exitDy=0;strokeWidth=2;endArrow=none;endFill=0;" edge="1" parent="1" source="SjVd0R11uWINF_BP2O_y-104" target="SjVd0R11uWINF_BP2O_y-37">
          <mxGeometry relative="1" as="geometry" />
        </mxCell>
        <mxCell id="SjVd0R11uWINF_BP2O_y-104" value="" style="shape=image;verticalLabelPosition=bottom;labelBackgroundColor=default;verticalAlign=top;aspect=fixed;imageAspect=0;image=https://cdn-icons-png.flaticon.com/512/811/811683.png;" vertex="1" parent="1">
          <mxGeometry x="870" y="853.3" width="116.8" height="116.8" as="geometry" />
        </mxCell>
        <mxCell id="SjVd0R11uWINF_BP2O_y-105" style="edgeStyle=orthogonalEdgeStyle;rounded=0;orthogonalLoop=1;jettySize=auto;html=1;exitX=0.5;exitY=0;exitDx=0;exitDy=0;entryX=0.216;entryY=1.001;entryDx=0;entryDy=0;entryPerimeter=0;endArrow=none;endFill=0;strokeWidth=2;" edge="1" parent="1" source="SjVd0R11uWINF_BP2O_y-104">
          <mxGeometry relative="1" as="geometry">
            <mxPoint x="927.8400000000001" y="819.9999999999998" as="targetPoint" />
          </mxGeometry>
        </mxCell>
        <mxCell id="SjVd0R11uWINF_BP2O_y-109" style="edgeStyle=orthogonalEdgeStyle;rounded=0;orthogonalLoop=1;jettySize=auto;html=1;entryX=1.002;entryY=0.6;entryDx=0;entryDy=0;entryPerimeter=0;endArrow=none;endFill=0;strokeWidth=2;" edge="1" parent="1" source="SjVd0R11uWINF_BP2O_y-97" target="k-ZRCNuigtCwhWHw63hm-18">
          <mxGeometry relative="1" as="geometry" />
        </mxCell>
      </root>
    </mxGraphModel>
  </diagram>
</mxfile>
